<mxfile host="app.diagrams.net" modified="2021-07-18T08:37:34.857Z" agent="5.0 (Windows NT 10.0; Win64; x64) AppleWebKit/537.36 (KHTML, like Gecko) Chrome/91.0.4472.124 Safari/537.36" etag="sMJTKRa-6iFDLjIaTKXf" version="14.8.4" type="github">
  <diagram id="U8M4_-cLWIDiqlrsoUaA" name="Page-1">
    <mxGraphModel dx="868" dy="482" grid="1" gridSize="10" guides="1" tooltips="1" connect="1" arrows="1" fold="1" page="1" pageScale="1" pageWidth="1169" pageHeight="827" math="0" shadow="0">
      <root>
        <mxCell id="0" />
        <mxCell id="1" parent="0" />
        <mxCell id="FlsYvMmEKagO2YmYjC0v-1" value="Usuario" style="shape=umlActor;verticalLabelPosition=bottom;verticalAlign=top;html=1;outlineConnect=0;" vertex="1" parent="1">
          <mxGeometry x="205" y="340" width="30" height="60" as="geometry" />
        </mxCell>
        <mxCell id="FlsYvMmEKagO2YmYjC0v-5" value="Android" style="rounded=1;whiteSpace=wrap;html=1;" vertex="1" parent="1">
          <mxGeometry x="190" y="240" width="60" height="60" as="geometry" />
        </mxCell>
        <mxCell id="FlsYvMmEKagO2YmYjC0v-9" value="Usuario" style="shape=umlActor;verticalLabelPosition=bottom;verticalAlign=top;html=1;outlineConnect=0;" vertex="1" parent="1">
          <mxGeometry x="325" y="340" width="30" height="60" as="geometry" />
        </mxCell>
        <mxCell id="FlsYvMmEKagO2YmYjC0v-10" value="iOS" style="rounded=1;whiteSpace=wrap;html=1;" vertex="1" parent="1">
          <mxGeometry x="310" y="240" width="60" height="60" as="geometry" />
        </mxCell>
        <mxCell id="FlsYvMmEKagO2YmYjC0v-11" value="Usuario" style="shape=umlActor;verticalLabelPosition=bottom;verticalAlign=top;html=1;outlineConnect=0;" vertex="1" parent="1">
          <mxGeometry x="445" y="340" width="30" height="60" as="geometry" />
        </mxCell>
        <mxCell id="FlsYvMmEKagO2YmYjC0v-12" value="Web" style="rounded=1;whiteSpace=wrap;html=1;" vertex="1" parent="1">
          <mxGeometry x="430" y="240" width="60" height="60" as="geometry" />
        </mxCell>
        <mxCell id="FlsYvMmEKagO2YmYjC0v-13" value="App" style="rounded=1;whiteSpace=wrap;html=1;" vertex="1" parent="1">
          <mxGeometry x="190" y="140" width="60" height="60" as="geometry" />
        </mxCell>
        <mxCell id="FlsYvMmEKagO2YmYjC0v-14" value="App" style="rounded=1;whiteSpace=wrap;html=1;" vertex="1" parent="1">
          <mxGeometry x="310" y="140" width="60" height="60" as="geometry" />
        </mxCell>
        <mxCell id="FlsYvMmEKagO2YmYjC0v-15" value="App" style="rounded=1;whiteSpace=wrap;html=1;" vertex="1" parent="1">
          <mxGeometry x="430" y="140" width="60" height="60" as="geometry" />
        </mxCell>
        <mxCell id="FlsYvMmEKagO2YmYjC0v-16" value="Persistencia" style="rounded=1;whiteSpace=wrap;html=1;" vertex="1" parent="1">
          <mxGeometry x="200" y="40" width="290" height="60" as="geometry" />
        </mxCell>
      </root>
    </mxGraphModel>
  </diagram>
</mxfile>
